<?xml version="1.0" standalone="no"?>
<!DOCTYPE svg PUBLIC "-//W3C//DTD SVG 20010904//EN"
 "http://www.w3.org/TR/2001/REC-SVG-20010904/DTD/svg10.dtd">
<svg version="1.0" xmlns="http://www.w3.org/2000/svg"
 width="50.000000pt" height="50.000000pt" viewBox="0 0 50.000000 50.000000"
 preserveAspectRatio="xMidYMid meet">
<metadata>
Created by potrace 1.10, written by Peter Selinger 2001-2011
</metadata>
<g transform="translate(0.000000,50.000000) scale(0.050000,-0.050000)"
fill="#28b3bd" stroke="none">
<path d="M480 920 c0 -55 -6 -60 -70 -60 -49 0 -70 -9 -70 -30 0 -17 -18 -30
-40 -30 -27 0 -40 13 -40 40 0 32 13 40 70 40 39 0 70 9 70 20 0 11 -12 20
-27 20 -16 0 -56 6 -90 13 -61 12 -63 10 -63 -60 0 -70 -3 -73 -69 -73 l-70 0
5 -135 c2 -74 -4 -160 -13 -190 l-17 -55 172 0 c136 0 176 7 185 30 13 33 127
42 127 10 0 -36 314 -25 328 12 42 111 -7 288 -80 288 -25 0 -51 9 -58 20 -7
12 20 20 69 20 90 0 113 38 26 43 -30 2 -64 5 -75 8 -11 2 -67 5 -125 7 -92 2
-105 7 -105 43 0 38 8 40 90 28 103 -15 127 19 28 39 -131 26 -158 17 -158
-48z m200 -130 c0 -21 -21 -30 -71 -30 l-71 0 14 -120 13 -120 -87 0 -88 0 0
150 0 150 145 0 c116 0 145 -6 145 -30z m-325 -135 c-5 -58 -16 -120 -24 -138
-10 -23 -3 -36 23 -43 20 -5 -22 -10 -94 -12 l-130 -2 0 150 0 150 117 0 118
0 -10 -105z m466 11 c49 -127 21 -175 -104 -182 l-113 -6 -7 121 -7 121 105 0
c97 0 108 -5 126 -54z"/>
<path d="M480 410 c0 -47 -6 -50 -110 -50 -60 0 -110 9 -110 20 0 11 -57 20
-130 20 -152 0 -170 -36 -81 -167 l50 -73 -50 0 c-27 0 -49 -10 -49 -22 0 -15
26 -18 75 -10 41 6 86 11 100 10 14 0 61 -1 105 -1 44 0 94 0 110 0 17 0 66 0
110 0 44 0 94 0 110 0 17 0 66 0 110 0 44 0 91 1 105 1 14 1 59 -4 100 -10 49
-8 75 -5 75 10 0 12 -21 22 -47 22 -71 0 -75 18 -23 97 26 40 54 99 62 131
l14 58 -128 -15 c-70 -8 -139 -23 -153 -35 -18 -15 -25 -14 -25 2 0 12 -9 22
-20 22 -11 0 -20 -13 -20 -30 0 -21 -21 -30 -70 -30 -61 0 -70 6 -70 50 0 28
-9 50 -20 50 -11 0 -20 -22 -20 -50z m460 -37 c0 -103 -186 -235 -274 -195
-40 19 -66 19 -109 1 -44 -18 -70 -18 -114 0 -43 18 -69 18 -108 0 -97 -44
-295 70 -295 170 0 20 157 11 170 -9 20 -33 473 -25 521 8 36 25 79 36 184 49
14 2 25 -9 25 -24z"/>
<path d="M120 100 c-16 -11 -50 -20 -75 -20 -25 0 -45 -10 -45 -22 0 -15 26
-18 75 -10 41 6 86 11 100 10 14 0 61 -1 105 -1 44 0 94 0 110 0 17 0 66 0
110 0 44 0 94 0 110 0 17 0 66 0 110 0 44 0 91 1 105 1 14 1 59 -4 100 -10 45
-7 75 -4 75 8 0 20 -101 47 -165 44 -19 -1 -66 -2 -105 -1 -312 1 -374 1 -455
-3 -36 -2 -78 3 -95 10 -16 7 -43 5 -60 -6z"/>
</g>
</svg>
